<svg xmlns="http://www.w3.org/2000/svg" viewBox="0 0 180 50"><title>アートボード 3</title><g id="レイヤー_3" data-name="レイヤー 3"><path d="M36.92,25.82V24.23H10.45V3.2H36.8V1.61H2.08V48.89H36.8V47.3H10.45V25.82ZM3.67,7.16V4a.67.67,0,0,1,.67-.68H8.19A.68.68,0,0,1,8.87,4V7.15a.68.68,0,0,1-.68.68H4.34A.67.67,0,0,1,3.67,7.16Zm0,28.27V32.26a.68.68,0,0,1,.67-.68H8.19a.69.69,0,0,1,.68.68v3.17a.69.69,0,0,1-.68.68H4.34A.68.68,0,0,1,3.67,35.43Zm0-5.65V26.61a.67.67,0,0,1,.67-.68H8.19a.68.68,0,0,1,.68.68v3.16a.68.68,0,0,1-.68.68H4.34A.67.67,0,0,1,3.67,29.78Zm0-5.66V21a.68.68,0,0,1,.67-.68H8.19a.69.69,0,0,1,.68.68v3.17a.69.69,0,0,1-.68.68H4.34A.68.68,0,0,1,3.67,24.12Zm0-5.65V15.3a.67.67,0,0,1,.67-.68H8.19a.68.68,0,0,1,.68.68v3.16a.68.68,0,0,1-.68.68H4.34A.67.67,0,0,1,3.67,18.47ZM8.19,9a.69.69,0,0,1,.68.68v3.17a.69.69,0,0,1-.68.68H4.34a.67.67,0,0,1-.67-.68V9.64A.68.68,0,0,1,4.34,9ZM3.67,41.08V37.92a.67.67,0,0,1,.67-.68H8.19a.68.68,0,0,1,.68.68v3.16a.68.68,0,0,1-.68.68H4.34A.67.67,0,0,1,3.67,41.08Zm0,5.66V43.57a.68.68,0,0,1,.67-.68H8.19a.69.69,0,0,1,.68.68v3.17a.66.66,0,0,1-.31.56H4A.66.66,0,0,1,3.67,46.74Z"/><path d="M158.43,1.36l-6.64,3.05-19.58,42.9,1.44.66L152.27,7.18l19.42,41.3,7.08-3.4Zm-.87,2.13.12,0,1.76,3.78a.72.72,0,0,1-.34.37l-3.5,1.6a.71.71,0,0,1-.28.06.63.63,0,0,1-.33-.09l-1.66-3.53a.57.57,0,0,1,.1-.31ZM172.4,46h-.08l-.09,0-1.7-3.63a.65.65,0,0,1,.08-.22l0-.06.06-.06a.17.17,0,0,1,.06-.06l.06,0,.08-.05,3.49-1.6a.75.75,0,0,1,.29-.06h0l1.84,3.95h0l-.05.06-.1.09,0,0-.07,0-3.5,1.6a.71.71,0,0,1-.28.06h-.11ZM155.81,11h0a.49.49,0,0,1,0-.12.64.64,0,0,1,.1-.26.22.22,0,0,1,.05-.08.76.76,0,0,1,.24-.18l3.49-1.6a.71.71,0,0,1,.28-.06h.12l1.8,3.87h0a.21.21,0,0,1,0,.06l0,0a.1.1,0,0,1,0,.05.8.8,0,0,1-.21.15l-3.49,1.6a.71.71,0,0,1-.28.06h-.11l-.09,0-.05,0h0l-.05,0,0,0h0Zm2.49,5.18a1.37,1.37,0,0,1,0-.19.66.66,0,0,1,.21-.31.46.46,0,0,1,.16-.11l3.5-1.6a.58.58,0,0,1,.28-.07h0l1.84,3.94h0l-.05.07-.07.06h0l-.05,0h0l-.07,0-3.49,1.6a.75.75,0,0,1-.29.06h-.09l-.09,0-.08,0h0l-.07,0h0l-.06-.05h0l-1.52-3.24h0A.66.66,0,0,1,158.3,16.17Zm2.29,5h0a.83.83,0,0,1,.07-.13v0s0,0,0,0l0-.06.06-.06a.18.18,0,0,1,.07-.05l0,0,.08,0,3.49-1.6a.71.71,0,0,1,.28-.06H165l1.74,3.74h0v0h0s0,0,0,0a.35.35,0,0,1,0,.08l0,.06h0s0,0-.05.05l-.06.05a.1.1,0,0,1-.06.05l-.08,0-3.49,1.6a.71.71,0,0,1-.28.06h-.21Zm2.48,5.25a.25.25,0,0,1,0-.07h0l0-.07.08-.13,0,0,0,0,.05-.05a0,0,0,0,0,0,0l0,0,0,0,.07,0,3.5-1.6a.71.71,0,0,1,.28-.06h.14l1.79,3.85-.05.08s0,0,0,0a.18.18,0,0,1-.05.07l0,0a.15.15,0,0,1-.06,0s0,0,0,0l0,0h0l-.07,0-3.49,1.61a.75.75,0,0,1-.29.06h-.18l-.07,0h0Zm2.49,5.17,0-.08,0-.05h0l0,0h0l0,0,0-.05s0-.05.06-.06h0l0,0h0l.08-.05,3.5-1.6a.71.71,0,0,1,.28-.06h.07l1.82,3.91a.44.44,0,0,1-.12.15l-.17.11-3.5,1.6a.67.67,0,0,1-.28.06h-.09l-.09,0-.06,0-.06,0-1.69-3.57S165.55,31.62,165.56,31.59ZM168.05,37l0-.08,0,0,0-.06,0-.06.07-.06s0,0,0,0l.05,0h0l0,0,.07,0,3.5-1.6a.67.67,0,0,1,.28-.06h.11l1.8,3.88-.06.08h0L174,39l0,0a.1.1,0,0,1-.05,0h0l0,0h0l-.06,0-3.5,1.6a.71.71,0,0,1-.28.06h-.17l-.06,0h0Z"/><path d="M50.71,20.84v8.37H76.27V20.84ZM70.17,27V23.1a.68.68,0,0,1,.68-.68H74a.7.7,0,0,1,.67.54v4a.67.67,0,0,1-.68.67H70.81A.66.66,0,0,1,70.17,27ZM56.82,27a.67.67,0,0,1-.68.67H53A.67.67,0,0,1,52.3,27V23.1a.68.68,0,0,1,.68-.68h3.16a.68.68,0,0,1,.68.68Zm5.88,0a.67.67,0,0,1-.68.67H58.85a.67.67,0,0,1-.67-.67V23.1a.68.68,0,0,1,.68-.68H62a.68.68,0,0,1,.68.68Zm5.88,0a.67.67,0,0,1-.68.67H64.74a.67.67,0,0,1-.68-.67V23.1a.68.68,0,0,1,.68-.68H67.9a.68.68,0,0,1,.68.68Z"/><path d="M128.11,24.25h-8.38V44.77a21.85,21.85,0,1,1,7-34.18l1.19-1a23.43,23.43,0,1,0-4.71,35.08c.54-.36,1.06-.73,1.58-1.13s1.18-1,1.74-1.52c.4-.37.77-.76,1.14-1.16.08-.09.17-.18.25-.28l.2-.22Zm-6.79,12.23V32.63A.68.68,0,0,1,122,32h3.84a.68.68,0,0,1,.68.68v3.85a.68.68,0,0,1-.68.68H122A.68.68,0,0,1,121.32,36.48Zm5.2-10v3.17a.67.67,0,0,1-.68.67H122a.67.67,0,0,1-.68-.67V26.52a.67.67,0,0,1,.68-.68h3.84A.67.67,0,0,1,126.52,26.52Zm0,13.19A21.92,21.92,0,0,1,122,43.5h0a.68.68,0,0,1-.68-.68V39.65A.67.67,0,0,1,122,39h3.84a.67.67,0,0,1,.68.68Z"/></g></svg>